STARTFONT 2.1
FONT -Adobe-Times-Bold-R-Normal--12-120-75-75-P-67-windows-1251
SIZE 12 75 75
FONTBOUNDINGBOX 14 15 -1 -3
COMMENT $XConsortium: timB12.bdf,v 1.14 95/01/26 18:05:47 gildea Exp $
COMMENT 
COMMENT +
COMMENT  Copyright 1984-1989, 1994 Adobe Systems Incorporated.
COMMENT  Copyright 1988, 1994 Digital Equipment Corporation.
COMMENT
COMMENT  Adobe is a trademark of Adobe Systems Incorporated which may be
COMMENT  registered in certain jurisdictions.
COMMENT  Permission to use these trademarks is hereby granted only in
COMMENT  association with the images described in this file.
COMMENT
COMMENT  Permission to use, copy, modify, distribute and sell this software
COMMENT  and its documentation for any purpose and without fee is hereby
COMMENT  granted, provided that the above copyright notices appear in all
COMMENT  copies and that both those copyright notices and this permission
COMMENT  notice appear in supporting documentation, and that the names of
COMMENT  Adobe Systems and Digital Equipment Corporation not be used in
COMMENT  advertising or publicity pertaining to distribution of the software
COMMENT  without specific, written prior permission.  Adobe Systems and
COMMENT  Digital Equipment Corporation make no representations about the
COMMENT  suitability of this software for any purpose.  It is provided "as
COMMENT  is" without express or implied warranty.
COMMENT -
STARTPROPERTIES 32
FOUNDRY "Adobe"
FAMILY_NAME "Times"
WEIGHT_NAME "Bold"
SLANT "R"
SETWIDTH_NAME "Normal"
ADD_STYLE_NAME ""
PIXEL_SIZE 12
POINT_SIZE 120
RESOLUTION_X 75
RESOLUTION_Y 75
SPACING "P"
AVERAGE_WIDTH 67
CHARSET_REGISTRY "windows"
CHARSET_ENCODING "1251"
CAP_HEIGHT 9
X_HEIGHT 6
FONT_ASCENT 11
FONT_DESCENT 3
FACE_NAME "Times Bold"
COPYRIGHT "Copyright (c) 1984, 1987 Adobe Systems Incorporated. All Rights Reserved. Copyright (c) 1988, 1991 Digital Equipment Corporation. All Rights Reserved."
NOTICE "Times is a trademark of Linotype-Hell AG and/or its subsidiaries."

STARTCHAR space
ENCODING 32
SWIDTH 240 0
DWIDTH 3 0
BBX 0 0 0 0
BITMAP
ENDCHAR
STARTCHAR exclam
ENCODING 33
SWIDTH 320 0
DWIDTH 4 0
BBX 2 9 1 0
BITMAP
C0
C0
C0
C0
C0
80
00
C0
C0
ENDCHAR
STARTCHAR quotedbl
ENCODING 34
SWIDTH 400 0
DWIDTH 5 0
BBX 3 4 1 5
BITMAP
A0
A0
A0
A0
ENDCHAR
STARTCHAR numbersign
ENCODING 35
SWIDTH 480 0
DWIDTH 6 0
BBX 7 8 -1 1
BITMAP
14
14
7E
28
28
FC
50
50
ENDCHAR
STARTCHAR dollar
ENCODING 36
SWIDTH 480 0
DWIDTH 6 0
BBX 5 11 0 -1
BITMAP
20
70
B8
E8
F0
78
38
A8
B8
70
20
ENDCHAR
STARTCHAR percent
ENCODING 37
SWIDTH 960 0
DWIDTH 12 0
BBX 9 9 1 0
BITMAP
6100
DF00
D600
D400
6B00
1680
3680
6680
4300
ENDCHAR
STARTCHAR ampersand
ENCODING 38
SWIDTH 800 0
DWIDTH 10 0
BBX 8 9 1 0
BITMAP
38
6C
68
33
7A
CC
CC
EF
72
ENDCHAR
STARTCHAR quotesingle
ENCODING 39
SWIDTH 240 0
DWIDTH 3 0
BBX 1 4 0 5
BITMAP
80
80
80
80
ENDCHAR
STARTCHAR parenleft
ENCODING 40
SWIDTH 320 0
DWIDTH 4 0
BBX 3 12 0 -3
BITMAP
20
60
40
C0
C0
C0
C0
C0
C0
40
60
20
ENDCHAR
STARTCHAR parenright
ENCODING 41
SWIDTH 320 0
DWIDTH 4 0
BBX 3 12 0 -3
BITMAP
80
C0
40
60
60
60
60
60
60
40
C0
80
ENDCHAR
STARTCHAR asterisk
ENCODING 42
SWIDTH 480 0
DWIDTH 6 0
BBX 5 5 0 4
BITMAP
20
A8
70
A8
20
ENDCHAR
STARTCHAR plus
ENCODING 43
SWIDTH 560 0
DWIDTH 7 0
BBX 5 5 1 1
BITMAP
20
20
F8
20
20
ENDCHAR
STARTCHAR comma
ENCODING 44
SWIDTH 320 0
DWIDTH 4 0
BBX 2 4 1 -2
BITMAP
C0
C0
40
80
ENDCHAR
STARTCHAR minus
ENCODING 45
SWIDTH 560 0
DWIDTH 7 0
BBX 5 1 1 3
BITMAP
F8
ENDCHAR
STARTCHAR period
ENCODING 46
SWIDTH 320 0
DWIDTH 4 0
BBX 2 2 1 0
BITMAP
C0
C0
ENDCHAR
STARTCHAR slash
ENCODING 47
SWIDTH 320 0
DWIDTH 4 0
BBX 3 9 0 0
BITMAP
20
20
60
40
40
C0
80
80
80
ENDCHAR
STARTCHAR zero
ENCODING 48
SWIDTH 480 0
DWIDTH 6 0
BBX 5 9 0 0
BITMAP
70
D8
D8
D8
D8
D8
D8
D8
70
ENDCHAR
STARTCHAR one
ENCODING 49
SWIDTH 480 0
DWIDTH 6 0
BBX 4 9 1 0
BITMAP
60
E0
60
60
60
60
60
60
F0
ENDCHAR
STARTCHAR two
ENCODING 50
SWIDTH 480 0
DWIDTH 6 0
BBX 5 9 0 0
BITMAP
70
F8
98
18
10
20
48
F8
F8
ENDCHAR
STARTCHAR three
ENCODING 51
SWIDTH 480 0
DWIDTH 6 0
BBX 5 9 0 0
BITMAP
70
F8
98
18
30
18
18
D8
F0
ENDCHAR
STARTCHAR four
ENCODING 52
SWIDTH 480 0
DWIDTH 6 0
BBX 6 9 0 0
BITMAP
18
18
38
58
58
D8
FC
18
18
ENDCHAR
STARTCHAR five
ENCODING 53
SWIDTH 480 0
DWIDTH 6 0
BBX 6 9 0 0
BITMAP
7C
70
C0
F0
78
18
98
D8
F0
ENDCHAR
STARTCHAR six
ENCODING 54
SWIDTH 480 0
DWIDTH 6 0
BBX 5 9 0 0
BITMAP
18
70
60
C0
F0
D8
D8
D8
70
ENDCHAR
STARTCHAR seven
ENCODING 55
SWIDTH 480 0
DWIDTH 6 0
BBX 5 9 0 0
BITMAP
F8
F8
88
10
10
30
30
60
60
ENDCHAR
STARTCHAR eight
ENCODING 56
SWIDTH 480 0
DWIDTH 6 0
BBX 5 9 0 0
BITMAP
70
D8
C8
E8
70
B8
98
D8
70
ENDCHAR
STARTCHAR nine
ENCODING 57
SWIDTH 480 0
DWIDTH 6 0
BBX 5 9 0 0
BITMAP
70
D8
D8
D8
78
18
30
70
C0
ENDCHAR
STARTCHAR colon
ENCODING 58
SWIDTH 320 0
DWIDTH 4 0
BBX 2 6 1 0
BITMAP
C0
C0
00
00
C0
C0
ENDCHAR
STARTCHAR semicolon
ENCODING 59
SWIDTH 320 0
DWIDTH 4 0
BBX 2 8 1 -2
BITMAP
C0
C0
00
00
C0
C0
40
80
ENDCHAR
STARTCHAR less
ENCODING 60
SWIDTH 560 0
DWIDTH 7 0
BBX 6 5 0 1
BITMAP
1C
70
C0
70
1C
ENDCHAR
STARTCHAR equal
ENCODING 61
SWIDTH 560 0
DWIDTH 7 0
BBX 5 3 1 2
BITMAP
F8
00
F8
ENDCHAR
STARTCHAR greater
ENCODING 62
SWIDTH 640 0
DWIDTH 8 0
BBX 6 5 0 1
BITMAP
E0
38
0C
38
E0
ENDCHAR
STARTCHAR question
ENCODING 63
SWIDTH 560 0
DWIDTH 7 0
BBX 5 9 1 0
BITMAP
70
D8
D8
18
30
20
00
60
60
ENDCHAR
STARTCHAR at
ENCODING 64
SWIDTH 960 0
DWIDTH 12 0
BBX 11 11 0 -2
BITMAP
0F80
38C0
7060
66A0
CDA0
D920
DB20
DB40
6D80
3000
1F00
ENDCHAR
STARTCHAR A
ENCODING 65
SWIDTH 720 0
DWIDTH 9 0
BBX 9 9 -1 0
BITMAP
0C00
0C00
1E00
1600
3600
2300
7F00
4380
E780
ENDCHAR
STARTCHAR B
ENCODING 66
SWIDTH 720 0
DWIDTH 9 0
BBX 8 9 0 0
BITMAP
FE
67
63
66
7C
67
63
67
FE
ENDCHAR
STARTCHAR C
ENCODING 67
SWIDTH 640 0
DWIDTH 8 0
BBX 7 9 0 0
BITMAP
3A
66
C2
C0
C0
C0
C0
62
3C
ENDCHAR
STARTCHAR D
ENCODING 68
SWIDTH 720 0
DWIDTH 9 0
BBX 8 9 0 0
BITMAP
FC
66
63
63
63
63
63
66
FC
ENDCHAR
STARTCHAR E
ENCODING 69
SWIDTH 640 0
DWIDTH 8 0
BBX 7 9 0 0
BITMAP
FE
66
62
68
78
68
62
66
FE
ENDCHAR
STARTCHAR F
ENCODING 70
SWIDTH 640 0
DWIDTH 8 0
BBX 7 9 0 0
BITMAP
FE
66
62
68
78
68
60
60
F0
ENDCHAR
STARTCHAR G
ENCODING 71
SWIDTH 720 0
DWIDTH 9 0
BBX 8 9 0 0
BITMAP
3A
66
C2
C0
C0
CF
C6
66
3C
ENDCHAR
STARTCHAR H
ENCODING 72
SWIDTH 800 0
DWIDTH 10 0
BBX 9 9 0 0
BITMAP
F780
6300
6300
6300
7F00
6300
6300
6300
F780
ENDCHAR
STARTCHAR I
ENCODING 73
SWIDTH 400 0
DWIDTH 5 0
BBX 4 9 0 0
BITMAP
F0
60
60
60
60
60
60
60
F0
ENDCHAR
STARTCHAR J
ENCODING 74
SWIDTH 560 0
DWIDTH 7 0
BBX 6 10 0 -1
BITMAP
3C
18
18
18
18
18
18
D8
D8
70
ENDCHAR
STARTCHAR K
ENCODING 75
SWIDTH 800 0
DWIDTH 10 0
BBX 9 9 0 0
BITMAP
F780
6600
6C00
6800
7800
6C00
6600
6300
F780
ENDCHAR
STARTCHAR L
ENCODING 76
SWIDTH 640 0
DWIDTH 8 0
BBX 7 9 0 0
BITMAP
F0
60
60
60
60
60
62
66
FE
ENDCHAR
STARTCHAR M
ENCODING 77
SWIDTH 880 0
DWIDTH 11 0
BBX 10 9 0 0
BITMAP
E1C0
7380
7380
7580
5D80
5D80
4980
4980
E3C0
ENDCHAR
STARTCHAR N
ENCODING 78
SWIDTH 720 0
DWIDTH 9 0
BBX 8 9 0 0
BITMAP
E7
72
72
5A
5A
4E
4E
46
E2
ENDCHAR
STARTCHAR O
ENCODING 79
SWIDTH 720 0
DWIDTH 9 0
BBX 8 9 0 0
BITMAP
3C
66
C3
C3
C3
C3
C3
66
3C
ENDCHAR
STARTCHAR P
ENCODING 80
SWIDTH 640 0
DWIDTH 8 0
BBX 7 9 0 0
BITMAP
FC
66
66
66
7C
60
60
60
F0
ENDCHAR
STARTCHAR Q
ENCODING 81
SWIDTH 720 0
DWIDTH 9 0
BBX 8 11 0 -2
BITMAP
3C
66
C3
C3
C3
C3
C3
66
3C
1C
0F
ENDCHAR
STARTCHAR R
ENCODING 82
SWIDTH 720 0
DWIDTH 9 0
BBX 9 9 0 0
BITMAP
FC00
6600
6600
6600
7C00
6C00
6600
6300
F780
ENDCHAR
STARTCHAR S
ENCODING 83
SWIDTH 560 0
DWIDTH 7 0
BBX 6 9 0 0
BITMAP
7C
CC
C4
E0
78
1C
8C
CC
F8
ENDCHAR
STARTCHAR T
ENCODING 84
SWIDTH 720 0
DWIDTH 9 0
BBX 8 9 0 0
BITMAP
FF
99
99
18
18
18
18
18
3C
ENDCHAR
STARTCHAR U
ENCODING 85
SWIDTH 720 0
DWIDTH 9 0
BBX 8 9 0 0
BITMAP
F7
62
62
62
62
62
62
62
3C
ENDCHAR
STARTCHAR V
ENCODING 86
SWIDTH 720 0
DWIDTH 9 0
BBX 9 9 0 0
BITMAP
F380
6100
6200
3200
3200
1C00
1C00
0800
0800
ENDCHAR
STARTCHAR W
ENCODING 87
SWIDTH 960 0
DWIDTH 12 0
BBX 11 9 0 0
BITMAP
EF60
6640
6640
72C0
3680
3680
3B80
1900
1100
ENDCHAR
STARTCHAR X
ENCODING 88
SWIDTH 720 0
DWIDTH 9 0
BBX 8 9 0 0
BITMAP
F7
62
74
38
18
3C
2E
46
EF
ENDCHAR
STARTCHAR Y
ENCODING 89
SWIDTH 720 0
DWIDTH 9 0
BBX 8 9 0 0
BITMAP
F7
62
76
34
3C
18
18
18
3C
ENDCHAR
STARTCHAR Z
ENCODING 90
SWIDTH 640 0
DWIDTH 8 0
BBX 7 9 0 0
BITMAP
FE
CE
8C
18
38
30
62
E6
FE
ENDCHAR
STARTCHAR bracketleft
ENCODING 91
SWIDTH 320 0
DWIDTH 4 0
BBX 3 12 0 -3
BITMAP
E0
C0
C0
C0
C0
C0
C0
C0
C0
C0
C0
E0
ENDCHAR
STARTCHAR backslash
ENCODING 92
SWIDTH 240 0
DWIDTH 3 0
BBX 3 9 0 0
BITMAP
80
80
C0
40
40
60
20
20
20
ENDCHAR
STARTCHAR bracketright
ENCODING 93
SWIDTH 320 0
DWIDTH 4 0
BBX 3 12 0 -3
BITMAP
E0
60
60
60
60
60
60
60
60
60
60
E0
ENDCHAR
STARTCHAR asciicircum
ENCODING 94
SWIDTH 560 0
DWIDTH 7 0
BBX 5 5 1 4
BITMAP
20
70
50
D8
88
ENDCHAR
STARTCHAR underscore
ENCODING 95
SWIDTH 480 0
DWIDTH 6 0
BBX 6 1 0 -3
BITMAP
FC
ENDCHAR
STARTCHAR grave
ENCODING 96
SWIDTH 320 0
DWIDTH 4 0
BBX 2 2 1 7
BITMAP
80
40
ENDCHAR
STARTCHAR a
ENCODING 97
SWIDTH 560 0
DWIDTH 7 0
BBX 7 6 0 0
BITMAP
78
CC
3C
CC
CC
76
ENDCHAR
STARTCHAR b
ENCODING 98
SWIDTH 480 0
DWIDTH 6 0
BBX 6 9 -1 0
BITMAP
E0
60
60
78
6C
6C
6C
6C
58
ENDCHAR
STARTCHAR c
ENCODING 99
SWIDTH 480 0
DWIDTH 6 0
BBX 5 6 0 0
BITMAP
78
C8
C0
C0
E8
70
ENDCHAR
STARTCHAR d
ENCODING 100
SWIDTH 480 0
DWIDTH 6 0
BBX 6 9 0 0
BITMAP
38
18
18
78
D8
D8
D8
D8
6C
ENDCHAR
STARTCHAR e
ENCODING 101
SWIDTH 560 0
DWIDTH 7 0
BBX 6 6 0 0
BITMAP
78
CC
FC
C0
E4
78
ENDCHAR
STARTCHAR f
ENCODING 102
SWIDTH 320 0
DWIDTH 4 0
BBX 5 9 -1 0
BITMAP
38
68
60
F0
60
60
60
60
F0
ENDCHAR
STARTCHAR g
ENCODING 103
SWIDTH 480 0
DWIDTH 6 0
BBX 6 9 0 -3
BITMAP
7C
C8
C8
F0
60
78
CC
CC
78
ENDCHAR
STARTCHAR h
ENCODING 104
SWIDTH 480 0
DWIDTH 6 0
BBX 7 9 -1 0
BITMAP
E0
60
60
78
6C
6C
6C
6C
EE
ENDCHAR
STARTCHAR i
ENCODING 105
SWIDTH 240 0
DWIDTH 3 0
BBX 4 9 -1 0
BITMAP
60
60
00
E0
60
60
60
60
F0
ENDCHAR
STARTCHAR j
ENCODING 106
SWIDTH 240 0
DWIDTH 3 0
BBX 3 12 -1 -3
BITMAP
60
60
00
E0
60
60
60
60
60
60
60
C0
ENDCHAR
STARTCHAR k
ENCODING 107
SWIDTH 560 0
DWIDTH 7 0
BBX 8 9 -1 0
BITMAP
E0
60
60
66
6C
78
6C
66
E7
ENDCHAR
STARTCHAR l
ENCODING 108
SWIDTH 240 0
DWIDTH 3 0
BBX 4 9 -1 0
BITMAP
E0
60
60
60
60
60
60
60
F0
ENDCHAR
STARTCHAR m
ENCODING 109
SWIDTH 720 0
DWIDTH 9 0
BBX 10 6 -1 0
BITMAP
DB00
6D80
6D80
6D80
6D80
EDC0
ENDCHAR
STARTCHAR n
ENCODING 110
SWIDTH 480 0
DWIDTH 6 0
BBX 7 6 -1 0
BITMAP
F8
6C
6C
6C
6C
EE
ENDCHAR
STARTCHAR o
ENCODING 111
SWIDTH 560 0
DWIDTH 7 0
BBX 6 6 0 0
BITMAP
78
CC
CC
CC
CC
78
ENDCHAR
STARTCHAR p
ENCODING 112
SWIDTH 480 0
DWIDTH 6 0
BBX 6 9 -1 -3
BITMAP
F8
6C
6C
6C
6C
78
60
60
F0
ENDCHAR
STARTCHAR q
ENCODING 113
SWIDTH 480 0
DWIDTH 6 0
BBX 6 9 0 -3
BITMAP
78
D8
D8
D8
D8
78
18
18
3C
ENDCHAR
STARTCHAR r
ENCODING 114
SWIDTH 400 0
DWIDTH 5 0
BBX 5 6 -1 0
BITMAP
D8
68
60
60
60
F0
ENDCHAR
STARTCHAR s
ENCODING 115
SWIDTH 480 0
DWIDTH 6 0
BBX 5 6 0 0
BITMAP
78
C8
F0
78
98
F0
ENDCHAR
STARTCHAR t
ENCODING 116
SWIDTH 320 0
DWIDTH 4 0
BBX 4 8 -1 0
BITMAP
20
60
F0
60
60
60
60
30
ENDCHAR
STARTCHAR u
ENCODING 117
SWIDTH 480 0
DWIDTH 6 0
BBX 7 6 -1 0
BITMAP
EC
6C
6C
6C
7C
36
ENDCHAR
STARTCHAR v
ENCODING 118
SWIDTH 480 0
DWIDTH 6 0
BBX 7 6 -1 0
BITMAP
E6
64
34
3C
18
18
ENDCHAR
STARTCHAR w
ENCODING 119
SWIDTH 720 0
DWIDTH 9 0
BBX 10 6 -1 0
BITMAP
EEC0
6480
3680
3700
1B00
1B00
ENDCHAR
STARTCHAR x
ENCODING 120
SWIDTH 480 0
DWIDTH 6 0
BBX 6 6 0 0
BITMAP
EC
68
30
30
58
DC
ENDCHAR
STARTCHAR y
ENCODING 121
SWIDTH 480 0
DWIDTH 6 0
BBX 6 9 0 -3
BITMAP
CC
C8
C8
68
70
30
20
E0
C0
ENDCHAR
STARTCHAR z
ENCODING 122
SWIDTH 480 0
DWIDTH 6 0
BBX 5 6 0 0
BITMAP
F8
98
30
60
C8
F8
ENDCHAR
STARTCHAR braceleft
ENCODING 123
SWIDTH 400 0
DWIDTH 5 0
BBX 5 12 -1 -3
BITMAP
18
30
30
30
60
C0
60
30
30
30
30
18
ENDCHAR
STARTCHAR bar
ENCODING 124
SWIDTH 240 0
DWIDTH 3 0
BBX 1 12 1 -3
BITMAP
80
80
80
80
80
80
80
80
80
80
80
80
ENDCHAR
STARTCHAR braceright
ENCODING 125
SWIDTH 400 0
DWIDTH 5 0
BBX 5 12 0 -3
BITMAP
C0
60
60
60
30
18
30
60
60
60
60
C0
ENDCHAR
STARTCHAR asciitilde
ENCODING 126
SWIDTH 560 0
DWIDTH 7 0
BBX 6 3 0 3
BITMAP
64
FC
98
ENDCHAR
STARTCHAR afii10051
ENCODING 128
SWIDTH 880 0
DWIDTH 11 0
BBX 10 12 0 -3
BITMAP
FF00
9900
1800
1B80
1CC0
18C0
18C0
18C0
3CC0
00C0
0180
0300
ENDCHAR
STARTCHAR afii10052
ENCODING 129
SWIDTH 640 0
DWIDTH 8 0
BBX 7 12 0 0
BITMAP
08
10
00
FE
66
62
60
60
60
60
60
F0
ENDCHAR
STARTCHAR quotesinglbase
ENCODING 130
SWIDTH 320 0
DWIDTH 4 0
BBX 2 4 1 -2
BITMAP
C0
C0
40
80
ENDCHAR
STARTCHAR afii10100
ENCODING 131
SWIDTH 480 0
DWIDTH 6 0
BBX 6 9 -1 0
BITMAP
08
10
00
FC
64
60
60
60
F0
ENDCHAR
STARTCHAR quotedblbase
ENCODING 132
SWIDTH 560 0
DWIDTH 7 0
BBX 5 4 1 -2
BITMAP
D8
D8
48
90
ENDCHAR
STARTCHAR ellipsis
ENCODING 133
SWIDTH 1040 0
DWIDTH 13 0
BBX 10 2 1 0
BITMAP
CCC0
CCC0
ENDCHAR
STARTCHAR dagger
ENCODING 134
SWIDTH 560 0
DWIDTH 7 0
BBX 7 11 0 -2
BITMAP
10
10
54
FE
54
10
10
10
10
10
10
ENDCHAR
STARTCHAR daggerdbl
ENCODING 135
SWIDTH 560 0
DWIDTH 7 0
BBX 7 11 0 -2
BITMAP
10
54
FE
54
10
10
10
54
FE
54
10
ENDCHAR
STARTCHAR Euro
ENCODING 136
SWIDTH 720 0
DWIDTH 9 0
BBX 8 9 0 0
BITMAP
1D
33
61
FC
60
F8
60
31
1E
ENDCHAR
STARTCHAR perthousand
ENCODING 137
SWIDTH 1040 0
DWIDTH 13 0
BBX 11 9 0 0
BITMAP
7600
EC00
A800
E800
D660
3EE0
2BA0
6EE0
4CC0
ENDCHAR
STARTCHAR afii10058
ENCODING 138
SWIDTH 1040 0
DWIDTH 13 0
BBX 12 9 0 0
BITMAP
7F00
2600
2600
2600
27C0
2670
2630
A670
CFC0
ENDCHAR
STARTCHAR guilsinglleft
ENCODING 139
SWIDTH 400 0
DWIDTH 5 0
BBX 3 6 0 0
BITMAP
20
60
C0
C0
60
20
ENDCHAR
STARTCHAR afii10059
ENCODING 140
SWIDTH 1120 0
DWIDTH 14 0
BBX 13 9 0 0
BITMAP
F780
6300
6300
6300
7FE0
6338
6318
6338
F7F0
ENDCHAR
STARTCHAR afii10061
ENCODING 141
SWIDTH 800 0
DWIDTH 10 0
BBX 9 12 0 0
BITMAP
0400
0800
0000
F780
6600
6C00
6800
7800
6C00
6600
6300
F780
ENDCHAR
STARTCHAR afii10060
ENCODING 142
SWIDTH 960 0
DWIDTH 12 0
BBX 11 9 0 0
BITMAP
FF00
9900
1800
1B80
1CC0
18C0
18C0
18C0
3DE0
ENDCHAR
STARTCHAR afii10145
ENCODING 143
SWIDTH 800 0
DWIDTH 10 0
BBX 9 11 0 -2
BITMAP
F780
6300
6300
6300
6300
6300
6300
6300
FF80
1C00
0800
ENDCHAR
STARTCHAR afii10099
ENCODING 144
SWIDTH 480 0
DWIDTH 6 0
BBX 6 12 -1 -3
BITMAP
E0
60
F8
60
78
6C
6C
6C
EC
0C
0C
18
ENDCHAR
STARTCHAR quoteleft
ENCODING 145
SWIDTH 320 0
DWIDTH 4 0
BBX 2 4 1 5
BITMAP
40
80
C0
C0
ENDCHAR
STARTCHAR quoteright
ENCODING 146
SWIDTH 320 0
DWIDTH 4 0
BBX 2 4 1 5
BITMAP
C0
C0
40
80
ENDCHAR
STARTCHAR quotedblleft
ENCODING 147
SWIDTH 560 0
DWIDTH 7 0
BBX 5 4 1 5
BITMAP
48
90
D8
D8
ENDCHAR
STARTCHAR quotedblright
ENCODING 148
SWIDTH 560 0
DWIDTH 7 0
BBX 5 4 0 5
BITMAP
D8
D8
48
90
ENDCHAR
STARTCHAR bullet
ENCODING 149
SWIDTH 320 0
DWIDTH 4 0
BBX 3 4 0 2
BITMAP
40
E0
E0
40
ENDCHAR
STARTCHAR endash
ENCODING 150
SWIDTH 480 0
DWIDTH 6 0
BBX 6 1 0 3
BITMAP
FC
ENDCHAR
STARTCHAR emdash
ENCODING 151
SWIDTH 960 0
DWIDTH 12 0
BBX 12 1 0 3
BITMAP
FFF0
ENDCHAR
STARTCHAR trademark
ENCODING 153
SWIDTH 1120 0
DWIDTH 14 0
BBX 12 5 1 4
BITMAP
FE30
AB60
23E0
22A0
76B0
ENDCHAR
STARTCHAR afii10106
ENCODING 154
SWIDTH 800 0
DWIDTH 10 0
BBX 10 6 -1 0
BITMAP
7E00
2C00
2F80
2CC0
ACC0
CF80
ENDCHAR
STARTCHAR guilsinglright
ENCODING 155
SWIDTH 400 0
DWIDTH 5 0
BBX 3 6 1 0
BITMAP
80
C0
60
60
C0
80
ENDCHAR
STARTCHAR afii10107
ENCODING 156
SWIDTH 800 0
DWIDTH 10 0
BBX 10 6 -1 0
BITMAP
EE00
6C00
7F80
6CC0
6CC0
EF80
ENDCHAR
STARTCHAR afii10109
ENCODING 157
SWIDTH 560 0
DWIDTH 7 0
BBX 8 9 -1 0
BITMAP
04
08
00
E6
6C
78
6C
66
E7
ENDCHAR
STARTCHAR afii10108
ENCODING 158
SWIDTH 480 0
DWIDTH 6 0
BBX 7 9 -1 0
BITMAP
E0
60
F8
60
78
6C
6C
6C
EE
ENDCHAR
STARTCHAR afii10193
ENCODING 159
SWIDTH 480 0
DWIDTH 6 0
BBX 7 7 -1 -1
BITMAP
EE
6C
6C
6C
6C
FE
10
ENDCHAR
STARTCHAR space
ENCODING 160
SWIDTH 240 0
DWIDTH 3 0
BBX 0 0 0 0
BITMAP
ENDCHAR
STARTCHAR afii10062
ENCODING 161
SWIDTH 720 0
DWIDTH 9 0
BBX 9 12 0 0
BITMAP
3300
1E00
0000
F380
6100
3100
3200
1A00
1C00
0C00
6800
3000
ENDCHAR
STARTCHAR afii10110
ENCODING 162
SWIDTH 480 0
DWIDTH 6 0
BBX 6 12 0 -3
BITMAP
48
78
00
CC
C8
C8
68
70
30
20
E0
C0
ENDCHAR
STARTCHAR afii10057
ENCODING 163
SWIDTH 560 0
DWIDTH 7 0
BBX 6 10 0 -1
BITMAP
3C
18
18
18
18
18
18
D8
D8
70
ENDCHAR
STARTCHAR currency
ENCODING 164
SWIDTH 560 0
DWIDTH 7 0
BBX 6 6 0 2
BITMAP
CC
FC
48
48
FC
CC
ENDCHAR
STARTCHAR afii10050
ENCODING 165
SWIDTH 640 0
DWIDTH 8 0
BBX 7 11 0 0
BITMAP
02
06
FE
60
60
60
60
60
60
60
F0
ENDCHAR
STARTCHAR brokenbar
ENCODING 166
SWIDTH 240 0
DWIDTH 3 0
BBX 1 12 1 -3
BITMAP
80
80
80
80
80
00
00
80
80
80
80
80
ENDCHAR
STARTCHAR section
ENCODING 167
SWIDTH 480 0
DWIDTH 6 0
BBX 5 12 0 -3
BITMAP
78
C8
E0
70
B8
D8
E8
70
38
98
98
70
ENDCHAR
STARTCHAR afii10023
ENCODING 168
SWIDTH 667 0
DWIDTH 8 0
BBX 7 12 0 0
BITMAP
24
24
00
FE
66
62
68
78
68
62
66
FE
ENDCHAR
STARTCHAR copyright
ENCODING 169
SWIDTH 880 0
DWIDTH 11 0
BBX 9 9 1 0
BITMAP
3E00
4100
9E80
A280
A080
A280
9C80
4100
3E00
ENDCHAR
STARTCHAR afii10053
ENCODING 170
SWIDTH 640 0
DWIDTH 8 0
BBX 7 9 0 0
BITMAP
3A
66
C2
C0
F8
C0
C0
62
3C
ENDCHAR
STARTCHAR guillemotleft
ENCODING 171
SWIDTH 640 0
DWIDTH 8 0
BBX 6 6 1 0
BITMAP
24
6C
D8
D8
6C
24
ENDCHAR
STARTCHAR logicalnot
ENCODING 172
SWIDTH 640 0
DWIDTH 8 0
BBX 6 4 1 1
BITMAP
FC
04
04
04
ENDCHAR
STARTCHAR hyphen
ENCODING 173
SWIDTH 320 0
DWIDTH 4 0
BBX 3 2 0 2
BITMAP
E0
E0
ENDCHAR
STARTCHAR registered
ENCODING 174
SWIDTH 880 0
DWIDTH 11 0
BBX 9 9 1 0
BITMAP
3E00
4100
BC80
9480
9880
9480
B680
4100
3E00
ENDCHAR
STARTCHAR afii10056
ENCODING 175
SWIDTH 389 0
DWIDTH 5 0
BBX 4 12 0 0
BITMAP
90
90
00
F0
60
60
60
60
60
60
60
F0
ENDCHAR
STARTCHAR degree
ENCODING 176
SWIDTH 400 0
DWIDTH 5 0
BBX 4 4 0 5
BITMAP
60
90
90
60
ENDCHAR
STARTCHAR plusminus
ENCODING 177
SWIDTH 560 0
DWIDTH 7 0
BBX 5 7 1 0
BITMAP
20
20
F8
20
20
00
F8
ENDCHAR
STARTCHAR afii10055
ENCODING 178
SWIDTH 400 0
DWIDTH 5 0
BBX 4 9 0 0
BITMAP
F0
60
60
60
60
60
60
60
F0
ENDCHAR
STARTCHAR afii10103
ENCODING 179
SWIDTH 240 0
DWIDTH 3 0
BBX 4 9 -1 0
BITMAP
60
60
00
E0
60
60
60
60
F0
ENDCHAR
STARTCHAR afii10098
ENCODING 180
SWIDTH 480 0
DWIDTH 6 0
BBX 6 7 -1 0
BITMAP
04
FC
60
60
60
60
F0
ENDCHAR
STARTCHAR mu
ENCODING 181
SWIDTH 480 0
DWIDTH 6 0
BBX 7 9 -1 -3
BITMAP
EC
6C
6C
6C
7C
76
40
60
60
ENDCHAR
STARTCHAR paragraph
ENCODING 182
SWIDTH 640 0
DWIDTH 8 0
BBX 7 12 0 -3
BITMAP
7E
F4
F4
F4
F4
74
14
14
14
14
14
14
ENDCHAR
STARTCHAR periodcentered
ENCODING 183
SWIDTH 240 0
DWIDTH 3 0
BBX 2 2 0 3
BITMAP
C0
C0
ENDCHAR
STARTCHAR afii10071
ENCODING 184
SWIDTH 444 0
DWIDTH 7 0
BBX 6 9 0 0
BITMAP
28
28
00
78
CC
FC
C0
E4
78
ENDCHAR
STARTCHAR afii61352
ENCODING 185
SWIDTH 960 0
DWIDTH 12 0
BBX 12 9 -1 0
BITMAP
70C0
3900
3900
2D60
2D50
2750
2730
2300
C170
ENDCHAR
STARTCHAR afii10101
ENCODING 186
SWIDTH 480 0
DWIDTH 6 0
BBX 5 6 0 0
BITMAP
78
C8
E0
C0
E8
70
ENDCHAR
STARTCHAR guillemotright
ENCODING 187
SWIDTH 640 0
DWIDTH 8 0
BBX 6 6 1 0
BITMAP
90
D8
6C
6C
D8
90
ENDCHAR
STARTCHAR afii10105
ENCODING 188
SWIDTH 240 0
DWIDTH 3 0
BBX 3 12 -1 -3
BITMAP
60
60
00
E0
60
60
60
60
60
60
60
C0
ENDCHAR
STARTCHAR afii10054
ENCODING 189
SWIDTH 560 0
DWIDTH 7 0
BBX 6 9 0 0
BITMAP
7C
CC
C4
E0
78
1C
8C
CC
F8
ENDCHAR
STARTCHAR afii10102
ENCODING 190
SWIDTH 480 0
DWIDTH 6 0
BBX 5 6 0 0
BITMAP
78
C8
F0
78
98
F0
ENDCHAR
STARTCHAR afii10104
ENCODING 191
SWIDTH 278 0
DWIDTH 3 0
BBX 4 9 -1 0
BITMAP
A0
A0
00
E0
60
60
60
60
F0
ENDCHAR
STARTCHAR afii10017
ENCODING 192
SWIDTH 720 0
DWIDTH 9 0
BBX 9 9 -1 0
BITMAP
0C00
0C00
1E00
1600
3600
2300
7F00
4380
E780
ENDCHAR
STARTCHAR afii10018
ENCODING 193
SWIDTH 720 0
DWIDTH 9 0
BBX 8 9 0 0
BITMAP
FF
63
61
60
7C
67
63
67
FE
ENDCHAR
STARTCHAR afii10019
ENCODING 194
SWIDTH 720 0
DWIDTH 9 0
BBX 8 9 0 0
BITMAP
FE
67
63
66
7C
67
63
67
FE
ENDCHAR
STARTCHAR afii10020
ENCODING 195
SWIDTH 640 0
DWIDTH 8 0
BBX 7 9 0 0
BITMAP
FE
66
62
60
60
60
60
60
F0
ENDCHAR
STARTCHAR afii10021
ENCODING 196
SWIDTH 720 0
DWIDTH 9 0
BBX 8 11 0 -2
BITMAP
7F
26
26
26
26
26
26
46
FF
C3
81
ENDCHAR
STARTCHAR afii10022
ENCODING 197
SWIDTH 640 0
DWIDTH 8 0
BBX 7 9 0 0
BITMAP
FE
66
62
68
78
68
62
66
FE
ENDCHAR
STARTCHAR afii10024
ENCODING 198
SWIDTH 960 0
DWIDTH 12 0
BBX 12 9 0 0
BITMAP
EF70
6660
36C0
1680
1F80
1F80
36C0
6660
EF70
ENDCHAR
STARTCHAR afii10025
ENCODING 199
SWIDTH 640 0
DWIDTH 8 0
BBX 7 9 0 0
BITMAP
BC
CE
86
0C
38
0E
06
8E
7C
ENDCHAR
STARTCHAR afii10026
ENCODING 200
SWIDTH 720 0
DWIDTH 9 0
BBX 9 9 0 0
BITMAP
F780
6300
6700
6700
6B00
7300
7300
6300
F780
ENDCHAR
STARTCHAR afii10027
ENCODING 201
SWIDTH 720 0
DWIDTH 9 0
BBX 9 12 0 0
BITMAP
3600
1C00
0000
F780
6300
6700
6700
6B00
7300
7300
6300
F780
ENDCHAR
STARTCHAR afii10028
ENCODING 202
SWIDTH 800 0
DWIDTH 10 0
BBX 9 9 0 0
BITMAP
F780
6600
6C00
6800
7800
6C00
6600
6300
F780
ENDCHAR
STARTCHAR afii10029
ENCODING 203
SWIDTH 720 0
DWIDTH 9 0
BBX 8 9 0 0
BITMAP
7F
26
26
26
26
26
26
A6
CF
ENDCHAR
STARTCHAR afii10030
ENCODING 204
SWIDTH 880 0
DWIDTH 11 0
BBX 10 9 0 0
BITMAP
E1C0
7380
7380
7580
5D80
5D80
4980
4980
E3C0
ENDCHAR
STARTCHAR afii10031
ENCODING 205
SWIDTH 800 0
DWIDTH 10 0
BBX 9 9 0 0
BITMAP
F780
6300
6300
6300
7F00
6300
6300
6300
F780
ENDCHAR
STARTCHAR afii10032
ENCODING 206
SWIDTH 720 0
DWIDTH 9 0
BBX 8 9 0 0
BITMAP
3C
66
C3
C3
C3
C3
C3
66
3C
ENDCHAR
STARTCHAR afii10033
ENCODING 207
SWIDTH 800 0
DWIDTH 10 0
BBX 9 9 0 0
BITMAP
FF80
6300
6300
6300
6300
6300
6300
6300
F780
ENDCHAR
STARTCHAR afii10034
ENCODING 208
SWIDTH 640 0
DWIDTH 8 0
BBX 7 9 0 0
BITMAP
FC
66
66
66
7C
60
60
60
F0
ENDCHAR
STARTCHAR afii10035
ENCODING 209
SWIDTH 640 0
DWIDTH 8 0
BBX 7 9 0 0
BITMAP
3A
66
C2
C0
C0
C0
C0
62
3C
ENDCHAR
STARTCHAR afii10036
ENCODING 210
SWIDTH 720 0
DWIDTH 9 0
BBX 8 9 0 0
BITMAP
FF
99
99
18
18
18
18
18
3C
ENDCHAR
STARTCHAR afii10037
ENCODING 211
SWIDTH 720 0
DWIDTH 9 0
BBX 9 9 0 0
BITMAP
F380
6100
3100
3200
1A00
1C00
0C00
6800
3000
ENDCHAR
STARTCHAR afii10038
ENCODING 212
SWIDTH 880 0
DWIDTH 11 0
BBX 10 9 0 0
BITMAP
1E00
0C00
7F80
CCC0
CCC0
CCC0
7F80
0C00
1E00
ENDCHAR
STARTCHAR afii10039
ENCODING 213
SWIDTH 720 0
DWIDTH 9 0
BBX 8 9 0 0
BITMAP
F7
62
74
38
18
3C
2E
46
EF
ENDCHAR
STARTCHAR afii10040
ENCODING 214
SWIDTH 800 0
DWIDTH 10 0
BBX 9 11 0 -2
BITMAP
F780
6300
6300
6300
6300
6300
6300
6300
FF80
0180
0080
ENDCHAR
STARTCHAR afii10041
ENCODING 215
SWIDTH 800 0
DWIDTH 10 0
BBX 9 9 0 0
BITMAP
F780
6300
6300
6300
6700
3B00
0300
0300
0780
ENDCHAR
STARTCHAR afii10042
ENCODING 216
SWIDTH 960 0
DWIDTH 12 0
BBX 11 9 0 0
BITMAP
F5E0
64C0
64C0
64C0
64C0
64C0
64C0
64C0
FFE0
ENDCHAR
STARTCHAR afii10043
ENCODING 217
SWIDTH 960 0
DWIDTH 12 0
BBX 11 11 0 -2
BITMAP
F5E0
64C0
64C0
64C0
64C0
64C0
64C0
64C0
FFE0
0060
0020
ENDCHAR
STARTCHAR afii10044
ENCODING 218
SWIDTH 800 0
DWIDTH 10 0
BBX 9 9 0 0
BITMAP
F800
B000
B000
3000
3E00
3380
3180
3380
7F00
ENDCHAR
STARTCHAR afii10045
ENCODING 219
SWIDTH 960 0
DWIDTH 12 0
BBX 12 9 0 0
BITMAP
F0F0
6060
6060
6060
7C60
6760
6360
6760
FEF0
ENDCHAR
STARTCHAR afii10046
ENCODING 220
SWIDTH 720 0
DWIDTH 9 0
BBX 8 9 0 0
BITMAP
F0
60
60
60
7C
67
63
67
FE
ENDCHAR
STARTCHAR afii10047
ENCODING 221
SWIDTH 640 0
DWIDTH 8 0
BBX 7 9 0 0
BITMAP
B8
CC
86
06
3E
06
06
8C
78
ENDCHAR
STARTCHAR afii10048
ENCODING 222
SWIDTH 960 0
DWIDTH 12 0
BBX 11 9 0 0
BITMAP
F380
66C0
6C60
6C60
7C60
6C60
6C60
66C0
F380
ENDCHAR
STARTCHAR afii10049
ENCODING 223
SWIDTH 720 0
DWIDTH 9 0
BBX 8 9 0 0
BITMAP
3F
66
66
66
3E
36
36
66
EF
ENDCHAR
STARTCHAR afii10065
ENCODING 224
SWIDTH 560 0
DWIDTH 7 0
BBX 7 6 0 0
BITMAP
78
CC
3C
CC
CC
76
ENDCHAR
STARTCHAR afii10066
ENCODING 225
SWIDTH 560 0
DWIDTH 7 0
BBX 6 9 0 0
BITMAP
04
78
C0
F8
CC
CC
CC
CC
78
ENDCHAR
STARTCHAR afii10067
ENCODING 226
SWIDTH 560 0
DWIDTH 7 0
BBX 7 6 -1 0
BITMAP
FC
66
7C
66
66
FC
ENDCHAR
STARTCHAR afii10068
ENCODING 227
SWIDTH 480 0
DWIDTH 6 0
BBX 6 6 -1 0
BITMAP
FC
64
60
60
60
F0
ENDCHAR
STARTCHAR afii10069
ENCODING 228
SWIDTH 560 0
DWIDTH 7 0
BBX 7 7 0 -1
BITMAP
7E
2C
2C
2C
4C
FE
86
ENDCHAR
STARTCHAR afii10070
ENCODING 229
SWIDTH 560 0
DWIDTH 7 0
BBX 6 6 0 0
BITMAP
78
CC
FC
C0
E4
78
ENDCHAR
STARTCHAR afii10072
ENCODING 230
SWIDTH 720 0
DWIDTH 9 0
BBX 10 6 -1 0
BITMAP
CCC0
6D80
3F00
3F00
6D80
CCC0
ENDCHAR
STARTCHAR afii10073
ENCODING 231
SWIDTH 480 0
DWIDTH 6 0
BBX 5 6 0 0
BITMAP
F0
98
30
18
98
70
ENDCHAR
STARTCHAR afii10074
ENCODING 232
SWIDTH 560 0
DWIDTH 7 0
BBX 8 6 -1 0
BITMAP
E7
66
6E
76
66
E7
ENDCHAR
STARTCHAR afii10075
ENCODING 233
SWIDTH 560 0
DWIDTH 7 0
BBX 8 9 -1 0
BITMAP
24
3C
00
E7
66
6E
76
66
E7
ENDCHAR
STARTCHAR afii10076
ENCODING 234
SWIDTH 560 0
DWIDTH 7 0
BBX 8 6 -1 0
BITMAP
E6
6C
78
6C
66
E7
ENDCHAR
STARTCHAR afii10077
ENCODING 235
SWIDTH 480 0
DWIDTH 6 0
BBX 7 6 -1 0
BITMAP
7E
2C
2C
2C
AC
CE
ENDCHAR
STARTCHAR afii10078
ENCODING 236
SWIDTH 640 0
DWIDTH 8 0
BBX 9 6 -1 0
BITMAP
E380
6700
7700
5B00
5B00
CB80
ENDCHAR
STARTCHAR afii10079
ENCODING 237
SWIDTH 480 0
DWIDTH 6 0
BBX 7 6 -1 0
BITMAP
EE
6C
7C
6C
6C
EE
ENDCHAR
STARTCHAR afii10080
ENCODING 238
SWIDTH 560 0
DWIDTH 7 0
BBX 6 6 0 0
BITMAP
78
CC
CC
CC
CC
78
ENDCHAR
STARTCHAR afii10081
ENCODING 239
SWIDTH 480 0
DWIDTH 6 0
BBX 7 6 -1 0
BITMAP
FE
6C
6C
6C
6C
EE
ENDCHAR
STARTCHAR afii10082
ENCODING 240
SWIDTH 480 0
DWIDTH 6 0
BBX 6 9 -1 -3
BITMAP
F8
6C
6C
6C
6C
78
60
60
F0
ENDCHAR
STARTCHAR afii10083
ENCODING 241
SWIDTH 480 0
DWIDTH 6 0
BBX 5 6 0 0
BITMAP
78
C8
C0
C0
E8
70
ENDCHAR
STARTCHAR afii10084
ENCODING 242
SWIDTH 560 0
DWIDTH 7 0
BBX 6 6 0 0
BITMAP
FC
B4
30
30
30
78
ENDCHAR
STARTCHAR afii10085
ENCODING 243
SWIDTH 480 0
DWIDTH 6 0
BBX 6 9 0 -3
BITMAP
CC
C8
C8
68
70
30
20
E0
C0
ENDCHAR
STARTCHAR afii10086
ENCODING 244
SWIDTH 720 0
DWIDTH 9 0
BBX 8 12 0 -3
BITMAP
38
18
18
7E
DB
DB
DB
DB
7E
18
18
3C
ENDCHAR
STARTCHAR afii10087
ENCODING 245
SWIDTH 480 0
DWIDTH 6 0
BBX 6 6 0 0
BITMAP
EC
68
30
30
58
DC
ENDCHAR
STARTCHAR afii10088
ENCODING 246
SWIDTH 480 0
DWIDTH 6 0
BBX 7 7 -1 -1
BITMAP
EE
6C
6C
6C
6C
FE
02
ENDCHAR
STARTCHAR afii10089
ENCODING 247
SWIDTH 480 0
DWIDTH 6 0
BBX 7 6 -1 0
BITMAP
EE
6C
6C
3C
0C
0E
ENDCHAR
STARTCHAR afii10090
ENCODING 248
SWIDTH 640 0
DWIDTH 8 0
BBX 9 6 -1 0
BITMAP
EB80
6B00
6B00
6B00
6B00
FF80
ENDCHAR
STARTCHAR afii10091
ENCODING 249
SWIDTH 640 0
DWIDTH 8 0
BBX 9 7 -1 -1
BITMAP
EB80
6B00
6B00
6B00
6B00
FF80
0080
ENDCHAR
STARTCHAR afii10092
ENCODING 250
SWIDTH 640 0
DWIDTH 8 0
BBX 8 6 -1 0
BITMAP
F8
B0
3E
33
33
7E
ENDCHAR
STARTCHAR afii10093
ENCODING 251
SWIDTH 720 0
DWIDTH 9 0
BBX 10 6 -1 0
BITMAP
E1C0
6180
7980
6D80
6D80
F9C0
ENDCHAR
STARTCHAR afii10094
ENCODING 252
SWIDTH 560 0
DWIDTH 7 0
BBX 7 6 -1 0
BITMAP
F0
60
7C
66
66
FC
ENDCHAR
STARTCHAR afii10095
ENCODING 253
SWIDTH 480 0
DWIDTH 6 0
BBX 5 6 0 0
BITMAP
F0
98
38
18
B8
70
ENDCHAR
STARTCHAR afii10096
ENCODING 254
SWIDTH 720 0
DWIDTH 9 0
BBX 9 6 -1 0
BITMAP
F700
6D80
7D80
6D80
6D80
F700
ENDCHAR
STARTCHAR afii10097
ENCODING 255
SWIDTH 560 0
DWIDTH 7 0
BBX 7 6 0 0
BITMAP
7E
CC
CC
7C
6C
CE
ENDCHAR
STARTCHAR Lslash
ENCODING -1
SWIDTH 640 0
DWIDTH 8 0
BBX 7 9 0 0
BITMAP
F0
60
60
70
60
E0
62
66
FE
ENDCHAR
STARTCHAR OE
ENCODING -1
SWIDTH 1040 0
DWIDTH 13 0
BBX 12 9 0 0
BITMAP
3BF0
6630
C610
C640
C7C0
C640
C610
6630
3BF0
ENDCHAR
STARTCHAR Scaron
ENCODING -1
SWIDTH 560 0
DWIDTH 7 0
BBX 6 12 0 0
BITMAP
28
10
00
7C
CC
C4
E0
78
1C
8C
CC
F8
ENDCHAR
STARTCHAR Ydieresis
ENCODING -1
SWIDTH 720 0
DWIDTH 9 0
BBX 8 11 0 0
BITMAP
24
00
F7
62
76
34
3C
18
18
18
3C
ENDCHAR
STARTCHAR Zcaron
ENCODING -1
SWIDTH 640 0
DWIDTH 8 0
BBX 7 12 0 0
BITMAP
28
10
00
FE
CE
8C
18
38
30
62
E6
FE
ENDCHAR
STARTCHAR breve
ENCODING -1
SWIDTH 320 0
DWIDTH 4 0
BBX 4 3 0 7
BITMAP
90
90
60
ENDCHAR
STARTCHAR caron
ENCODING -1
SWIDTH 320 0
DWIDTH 4 0
BBX 3 2 0 7
BITMAP
A0
40
ENDCHAR
STARTCHAR circumflex
ENCODING -1
SWIDTH 320 0
DWIDTH 4 0
BBX 3 2 0 7
BITMAP
40
A0
ENDCHAR
STARTCHAR dotaccent
ENCODING -1
SWIDTH 320 0
DWIDTH 4 0
BBX 1 2 1 7
BITMAP
80
80
ENDCHAR
STARTCHAR dotlessi
ENCODING -1
SWIDTH 240 0
DWIDTH 3 0
BBX 4 6 -1 0
BITMAP
E0
60
60
60
60
F0
ENDCHAR
STARTCHAR fi
ENCODING -1
SWIDTH 640 0
DWIDTH 8 0
BBX 8 9 0 0
BITMAP
3E
66
60
FE
66
66
66
66
FF
ENDCHAR
STARTCHAR fl
ENCODING -1
SWIDTH 640 0
DWIDTH 8 0
BBX 8 9 0 0
BITMAP
3A
6E
66
FE
66
66
66
66
FF
ENDCHAR
STARTCHAR florin
ENCODING -1
SWIDTH 560 0
DWIDTH 7 0
BBX 8 11 -1 -2
BITMAP
07
0B
18
7E
18
18
18
18
18
D0
E0
ENDCHAR
STARTCHAR fraction
ENCODING -1
SWIDTH 320 0
DWIDTH 4 0
BBX 5 9 -1 0
BITMAP
08
08
10
10
20
20
40
40
80
ENDCHAR
STARTCHAR hungarumlaut
ENCODING -1
SWIDTH 320 0
DWIDTH 4 0
BBX 4 2 0 7
BITMAP
50
A0
ENDCHAR
STARTCHAR lslash
ENCODING -1
SWIDTH 240 0
DWIDTH 3 0
BBX 4 9 -1 0
BITMAP
E0
60
60
70
60
E0
60
60
F0
ENDCHAR
STARTCHAR oe
ENCODING -1
SWIDTH 640 0
DWIDTH 8 0
BBX 7 6 0 0
BITMAP
6C
DA
DE
D8
DE
6C
ENDCHAR
STARTCHAR ogonek
ENCODING -1
SWIDTH 320 0
DWIDTH 4 0
BBX 4 3 1 -3
BITMAP
80
D0
60
ENDCHAR
STARTCHAR ring
ENCODING -1
SWIDTH 320 0
DWIDTH 4 0
BBX 3 3 0 7
BITMAP
40
A0
40
ENDCHAR
STARTCHAR scaron
ENCODING -1
SWIDTH 480 0
DWIDTH 6 0
BBX 5 9 0 0
BITMAP
50
20
00
78
C8
F0
78
98
F0
ENDCHAR
STARTCHAR tilde
ENCODING -1
SWIDTH 400 0
DWIDTH 5 0
BBX 5 2 0 7
BITMAP
68
B0
ENDCHAR
STARTCHAR zcaron
ENCODING -1
SWIDTH 480 0
DWIDTH 6 0
BBX 5 9 0 0
BITMAP
50
20
00
F8
98
30
60
C8
F8
ENDCHAR
ENDFONT
